# xmcd
#
# Track frame offsets: 
#        150
#        13583
#        28641
#        42843
#        57503
#        71589
#        88584
#        105418
#        122050
#        138487
#        154172
#        167627
#
# Disc length: 2490 seconds
#
# Revision: 1
# Processed by: cddbd v1.5.2PL0 Copyright (c) Steve Scherf et al.
# Submitted via: ExactAudioCopy v1.0b3
#
DISCID=9a09b80c
DTITLE=Thomas Rhett - It Goes like This
DYEAR=2013
DGENRE=Country
TTITLE0=Whatcha Got in That Cup
TTITLE1=Something to Do with My Hands
TTITLE2=Get Me Some of That
TTITLE3=Call Me Up
TTITLE4=It Goes like This
TTITLE5=Make Me Wanna
TTITLE6=Front Porch Junkies (Remix)
TTITLE7=In a Minute
TTITLE8=Take You Home
TTITLE9=Sorry for Partyin'
TTITLE10=All-American Middle Class White Boy
TTITLE11=Beer with Jesus
EXTD=
EXTT0=
EXTT1=
EXTT2=
EXTT3=
EXTT4=
EXTT5=
EXTT6=
EXTT7=
EXTT8=
EXTT9=
EXTT10=
EXTT11=
PLAYORDER=
